<svg width="2628" height="2098" viewBox="0 0 2628 2098" fill="none" xmlns="http://www.w3.org/2000/svg">
<g filter="url(#filter0_d_534_2)">
<path d="M1068.61 7.23576C907.036 18.0163 750.652 78.4136 622.454 179.725C579.592 213.626 537.119 254.929 501.66 297.402C486.723 315.327 462.044 348.578 448.277 369.489C377.878 476.776 334.236 596.142 319.299 722.911C311.376 789.413 312.415 868.514 321.897 935.146C350.862 1138.81 455.81 1324.94 615.311 1455.47C720.259 1541.33 845.47 1600.29 978.603 1626.79C1035.23 1637.96 1075.89 1641.6 1142 1641.73C1197.46 1641.73 1215.65 1640.56 1261.5 1633.94C1389.3 1615.62 1517.11 1564.71 1619.98 1491.06C1674.8 1451.83 1715.32 1415.73 1818.71 1313.76C1840.92 1291.94 1901.71 1232.72 1953.92 1182.32L2048.87 1090.49L2181.22 948.134C2253.96 869.813 2313.71 805.259 2313.97 804.609C2314.75 802.272 2301.37 799.154 2288.25 798.505C2272.4 797.726 2262.53 799.674 2249.8 806.038C2244.61 808.636 2227.85 821.884 2200.84 844.744C2178.37 863.838 2157.06 880.983 2153.56 882.801C2150.05 884.75 2139.14 888.386 2129.14 890.984C2119.14 893.582 2099.91 898.647 2086.28 902.154C2072.77 905.791 2046.01 912.675 2027.05 917.611C1988.99 927.352 1971.46 933.587 1953.79 943.718C1936.91 953.33 1928.07 959.954 1891.84 990.737C1866.12 1012.56 1860.01 1018.4 1861.83 1019.18C1863.13 1019.7 1889.63 1023.6 1920.67 1028.01C1951.71 1032.3 1979.64 1036.72 1982.63 1037.89C1988.99 1040.22 1992.76 1044.38 1994.84 1051.52C1997.56 1060.23 1994.32 1065.55 1976.13 1082.57C1950.16 1107.25 1949.12 1107.63 1920.67 1107.76C1901.45 1107.89 1900.28 1108.02 1893.26 1111.53C1889.24 1113.48 1878.72 1121.4 1869.89 1129.2C1853.65 1143.48 1779.61 1217.39 1717.01 1282.07C1625.31 1376.76 1564.52 1427.03 1492.05 1467.94C1400.35 1519.77 1302.41 1550.29 1192.01 1561.46C1164.86 1564.19 1091.86 1564.58 1065.37 1562.11C931.195 1549.77 817.414 1510.67 710.128 1440.14C664.927 1410.27 630.897 1382.6 591.152 1342.99C542.964 1295.06 508.674 1251.68 475.683 1196.61C415.675 1096.72 381.385 992.815 368.916 872.151C366.188 844.874 365.799 766.033 368.266 739.017C380.735 606.532 421.26 489.635 491.659 382.478C614.401 195.571 808.582 71.6595 1029 39.7074C1070.3 33.7326 1087.84 32.5636 1140.7 32.5636C1193.57 32.5636 1211.1 33.7326 1252.4 39.7074C1486.07 73.6078 1692.07 211.937 1814.42 416.898C1872.87 514.833 1909.76 627.704 1921.19 743.563C1922.23 753.174 1923.01 758.11 1923.14 754.473C1923.27 745.511 1919.89 710.701 1916.64 688.361C1879.11 429.237 1716.23 205.183 1481 88.8045C1384.5 41.1362 1283.71 14.1198 1175.77 7.10587C1152 5.54724 1092.51 5.67712 1068.61 7.23576Z" fill="#3CB4E5"/>
<path d="M1117.32 149.592C1098.36 152.579 1083.29 159.983 1070.56 172.582L1061.47 181.544L1047.83 183.362C995.1 190.116 942.496 203.884 891.84 224.147L868.72 233.368L862.486 231.16C853.134 227.783 827.546 227.004 816.636 229.862C788.32 237.265 765.201 260.904 758.446 289.609L756.238 299.091L742.34 309.742C701.426 340.785 657.395 384.946 626.352 425.86L615.311 440.408L605.96 442.616C578.424 449.24 556.213 469.502 547.64 495.61C543.354 508.728 543.224 534.965 547.251 546.395L549.978 553.799L546.082 562.631C524.001 613.806 507.765 673.814 500.362 731.094L498.413 746.421L491.529 753.175C468.929 774.996 460.746 806.558 469.968 836.692C473.865 849.291 479.45 858.513 489.711 869.163L498.673 878.385L500.492 892.543C508.025 950.083 523.611 1008.01 545.432 1058.8L550.498 1070.75L547.9 1079.19C534.132 1123.61 560.369 1169.72 605.83 1181.28C613.753 1183.36 616.48 1184.66 618.559 1187.52C651.29 1232.2 701.426 1282.85 747.536 1317.53C754.29 1322.6 758.187 1326.49 758.187 1328.05C758.187 1329.35 759.615 1335.2 761.434 1340.91C765.33 1353.12 774.942 1368.32 783.904 1376.11C790.009 1381.57 803.777 1390.27 807.544 1391.18C808.583 1391.44 812.999 1392.61 817.285 1393.91C828.585 1397.15 850.796 1396.89 861.966 1393.26L870.409 1390.53L892.619 1399.49C942.366 1419.36 995.619 1433.26 1044.59 1439.37L1062.77 1441.57L1069.91 1448.98C1092.25 1471.84 1125.64 1479.89 1156.55 1469.5C1167.2 1465.99 1182.66 1455.73 1189.67 1447.42C1193.7 1442.61 1195.9 1441.05 1198.63 1441.05C1203.83 1441.05 1235.78 1436.25 1251.76 1433.13C1292.67 1425.08 1337.48 1411.31 1374.76 1395.46L1387.36 1390.14L1394.11 1392.22C1427.75 1402.87 1465.55 1390.92 1485.03 1363.64C1492.05 1353.9 1495.29 1346.63 1498.41 1334.29L1500.75 1324.81L1515.69 1313.12C1561.28 1277.4 1604.4 1233.88 1634.66 1192.71C1641.55 1183.49 1642.45 1182.71 1647.91 1181.93C1662.46 1179.72 1679.08 1170.89 1690.64 1159.07C1711.29 1138.03 1718.83 1105.3 1709.61 1076.72L1707.53 1070.23L1715.32 1050.87C1735.97 1000.48 1753.25 933.327 1757.79 886.698C1758.57 877.736 1758.96 877.086 1763.9 872.8C1775.59 862.799 1786.5 843.835 1789.49 828.379C1792.08 815.52 1790.66 794.219 1786.5 782.529C1782.34 770.839 1773.12 756.941 1764.81 749.927C1758.83 744.862 1758.57 744.342 1757.66 736.03C1752.08 682.776 1732.08 608.611 1709.87 558.994L1706.62 551.721L1709.35 544.057C1711.55 537.823 1712.07 533.407 1712.07 519.509C1712.07 504.182 1711.68 501.714 1708.44 492.882C1698.18 465.736 1676.1 445.993 1649.99 440.927C1641.42 439.109 1641.42 439.109 1634.27 429.627C1601.93 386.894 1555.95 340.785 1512.05 307.404L1499.06 297.403L1497.37 288.96C1492.05 260.385 1467.89 236.096 1437.49 228.433C1426.45 225.705 1403.72 226.614 1393.46 230.121L1386.32 232.589L1371.77 226.484C1325.79 207.002 1265.26 190.766 1213.31 183.882L1193.7 181.284L1184.73 172.452C1174.73 162.58 1162.13 155.307 1149.41 152.059C1140.83 149.722 1123.95 148.423 1117.32 149.592ZM1140.7 163.619C1176.29 171.153 1200.58 205.703 1194.61 240.642C1188.63 276.491 1153.95 302.208 1118.62 297.143C1090.05 293.116 1065.63 269.087 1060.82 240.772C1054.72 204.664 1080.44 169.205 1117.06 163.1C1127.06 161.411 1130.7 161.541 1140.7 163.619ZM1434.77 241.551C1466.72 249.994 1489.84 282.466 1486.2 314.028C1481.78 353.903 1442.17 382.348 1403.59 373.386C1386.71 369.49 1368.52 355.852 1359.82 340.655C1355.02 332.342 1350.47 315.976 1350.47 307.274C1350.6 278.309 1373.2 249.474 1402.03 241.551C1410.48 239.213 1426.19 239.213 1434.77 241.551ZM853.004 242.331C875.734 247.526 896.776 268.568 903.01 292.207C915.999 342.084 865.863 389.103 817.155 372.737C788.061 362.995 769.747 338.187 769.747 308.443C769.747 278.959 789.23 252.462 817.675 243.37C826.117 240.772 843.782 240.123 853.004 242.331ZM1074.72 291.558C1103.81 317.405 1151.74 317.275 1180.71 291.428L1187.98 284.933L1202.01 287.012C1239.42 292.467 1279.03 302.598 1312.41 315.067C1338 324.549 1339.3 325.328 1341.25 332.082C1346.18 348.448 1358.26 364.554 1373.07 374.425C1389.57 385.466 1409.05 390.012 1428.92 387.544C1434.64 386.765 1439.83 385.985 1440.35 385.596C1441 385.206 1444.9 387.284 1448.92 390.401C1476.85 411.313 1517.63 451.058 1541.01 480.153C1553.22 495.48 1554.13 496.908 1553.09 500.545C1550.75 508.988 1550.36 523.405 1552.31 534.446C1557.38 562.891 1577.12 586.011 1604.4 595.752L1613.49 598.999L1618.43 610.559C1626.09 627.964 1636.87 660.825 1642.58 683.685C1647.39 703.038 1654.4 740.316 1654.4 746.94C1654.4 748.759 1651.68 753.434 1648.04 757.98C1640.25 767.722 1634.4 779.282 1631.67 790.452C1629.21 801.233 1629.21 821.365 1631.67 831.236C1634.53 842.537 1641.81 856.564 1648.82 864.358C1655.96 872.281 1655.83 870.852 1651.03 899.427C1644.92 935.665 1632.45 979.177 1619.46 1010.74C1614.27 1023.21 1613.62 1023.86 1609.59 1024.64C1607.13 1025.16 1600.37 1027.88 1594.66 1030.74C1580.11 1038.02 1568.16 1050.1 1561.02 1064.64C1553.22 1080.49 1551.27 1089.45 1552.18 1105.95C1552.57 1113.48 1553.35 1121.01 1553.74 1122.83C1554.39 1125.56 1552.31 1128.94 1540.49 1143.61C1516.72 1173.23 1480.49 1208.82 1452.17 1230.25L1442.82 1237.39L1436.19 1235.96C1426.84 1233.88 1409.44 1234.14 1400.48 1236.48C1396.19 1237.52 1387.88 1240.77 1382.03 1243.63C1364.11 1252.46 1348.52 1270.64 1342.94 1289.48L1340.73 1296.88L1329.82 1301.43C1311.24 1309.22 1278.9 1319.87 1257.34 1325.33C1236.82 1330.39 1200.45 1337.14 1193.05 1337.14C1190.32 1337.14 1186.68 1335.2 1181.1 1330.78C1166.16 1318.96 1152.91 1313.9 1134.08 1312.86C1111.48 1311.56 1090.83 1318.31 1076.15 1331.82L1069.27 1338.05L1053.68 1335.85C1012.24 1329.74 969.772 1318.44 931.845 1303.11L917.817 1297.4L914.7 1288.57C910.154 1275.71 904.179 1266.62 893.658 1256.62C874.825 1238.56 848.977 1231.16 822.48 1236.09L814.298 1237.52L798.971 1225.18C767.409 1199.72 741.042 1173.49 715.714 1142.06L703.375 1126.86L705.063 1116.99C708.05 1098.15 704.543 1077.89 695.451 1061.79C693.243 1057.89 687.398 1050.49 682.333 1045.55C672.721 1035.94 664.019 1030.48 651.16 1026.07L643.497 1023.47L639.081 1013.21C625.572 981.515 611.415 931.119 605.57 893.842L602.453 873.19L608.947 865.267C634.535 833.704 634.535 790.192 608.947 759.539L602.323 751.356L604.271 737.458C610.376 696.025 620.637 657.318 636.353 617.313L642.717 600.818L650.77 598.22C674.41 590.297 695.841 568.346 702.206 545.486C706.102 531.848 706.492 509.507 702.985 500.545C701.946 497.947 717.532 477.815 737.665 455.345C754.42 436.901 781.047 411.963 800.53 396.636L813.908 386.245L821.831 387.804C833.651 390.142 853.004 388.713 864.044 384.816C873.006 381.699 899.373 366.892 896.256 366.892C895.347 366.892 897.165 363.515 900.283 359.358C906.647 351.306 913.661 337.927 914.83 331.823C915.869 326.757 916.518 326.367 933.014 319.743C971.46 304.287 1020.82 291.428 1062.77 285.973C1064.98 285.713 1066.93 285.323 1067.06 285.193C1067.32 285.193 1070.82 287.921 1074.72 291.558ZM1652.59 455.345C1687.78 466.255 1708.57 507.559 1695.84 541.719C1685.84 568.476 1659.34 587.699 1632.32 587.699C1590.63 587.569 1556.86 547.304 1565.17 507.559C1569.07 489.635 1578.29 475.217 1592.58 465.086C1610.89 451.968 1631.02 448.72 1652.59 455.345ZM639.99 455.345C649.472 457.553 661.421 463.917 669.344 471.191C699.997 499.116 699.997 543.797 669.344 571.723C647.523 591.726 616.091 594.713 589.984 579.256C575.436 570.684 563.227 554.318 558.811 537.693C548.16 496.519 581.151 454.046 623.754 454.046C629.469 453.916 636.743 454.565 639.99 455.345ZM1723.5 743.693C1735.32 746.161 1748.31 753.175 1757.27 762.137C1771.04 775.775 1777.8 791.751 1777.8 811.104C1777.8 830.847 1771.3 845.914 1757.01 859.682C1729.09 886.698 1688.17 885.919 1662.07 858.123C1648.3 843.576 1642.71 829.938 1642.71 811.104C1642.71 768.112 1682.2 735.12 1723.5 743.693ZM564.786 746.94C587.256 753.564 604.661 770.32 612.194 792.92C615.701 803.181 615.311 823.313 611.545 833.834C601.673 861.37 575.566 879.944 547.121 879.944C529.456 879.944 514.649 873.709 501.011 860.981C472.436 833.964 472.176 791.102 500.622 763.436C517.117 747.46 543.484 740.706 564.786 746.94ZM645.575 1038.41C678.566 1048.67 699.738 1085.55 691.295 1118.16C687.918 1131.27 682.852 1139.72 672.461 1150.11C662.071 1160.5 653.628 1165.56 640.509 1168.94C618.688 1174.66 594.919 1167.51 577.514 1149.98C553.615 1126.08 550.888 1091.27 570.501 1063.6C587.646 1039.57 617.26 1029.7 645.575 1038.41ZM1648.56 1036.46C1678.43 1044.25 1699.99 1071.53 1700.12 1101.4C1700.25 1120.1 1694.15 1135.17 1680.77 1148.94C1653.11 1177.64 1609.07 1176.99 1582.58 1147.51C1558.03 1120.23 1559.07 1080.62 1584.91 1054.77C1601.8 1037.89 1626.61 1030.74 1648.56 1036.46ZM850.536 1248.82C863.005 1251.16 877.552 1259.34 887.034 1269.47C911.972 1295.84 912.622 1333.64 888.463 1360.52C858.719 1393.65 807.414 1390.01 782.475 1353.12C774.033 1340.65 770.786 1330.26 770.786 1315.71C770.916 1301.3 774.163 1290 781.696 1278.83C797.153 1255.58 824.039 1243.89 850.536 1248.82ZM1435.55 1249.47C1447.23 1252.46 1456.2 1257.39 1464.77 1265.19C1488.15 1287.01 1493.99 1316.62 1480.36 1344.55C1468.8 1368.06 1445.94 1382.61 1420.48 1382.73C1408.01 1382.73 1400.22 1380.92 1388.79 1374.94C1365.02 1362.73 1350.08 1336.24 1352.16 1310.52C1354.63 1281.94 1375.28 1256.87 1402.55 1249.6C1411.91 1247.13 1426.06 1247 1435.55 1249.47ZM1145.12 1327.4C1156.03 1330.26 1165.51 1335.46 1173.95 1343.38C1189.93 1358.06 1196.29 1371.95 1196.42 1392.35C1196.55 1406.76 1194.61 1414.56 1187.72 1426.64C1179.41 1441.31 1161.22 1455.08 1144.73 1459.11C1135.77 1461.32 1119.92 1461.06 1111.48 1458.46C1077.06 1448.33 1055.5 1413.78 1062.64 1380.27C1067.84 1355.33 1087.84 1334.16 1112.39 1327.4C1120.83 1325.07 1136.55 1325.07 1145.12 1327.4Z" fill="#3CB4E5"/>
<path d="M1246.56 573.67C1186.94 657.187 1137.98 726.287 1137.72 727.066C1137.46 728.106 1140.7 729.275 1146.16 730.314C1160.97 733.171 1175.25 740.964 1187.2 752.914C1192.92 758.499 1197.72 763.045 1197.85 762.785C1198.76 761.746 1355.8 422.353 1355.41 422.093C1355.15 421.963 1306.18 490.153 1246.56 573.67Z" fill="#3CB4E5"/>
<path d="M1112.77 737.847C1072.64 746.419 1046.01 787.464 1054.85 827.079C1061.34 856.044 1083.16 878.384 1111.48 885.268C1121.35 887.606 1139.01 887.346 1148.49 884.619C1168.5 878.774 1185.9 865.006 1194.86 847.991C1201.75 834.872 1204.09 825.52 1204.09 811.103C1203.83 763.045 1159.79 727.716 1112.77 737.847ZM1138.36 786.554C1143.56 788.503 1150.31 795.257 1153.17 801.361C1162.52 821.624 1141.74 844.224 1120.44 836.821C1108.36 832.794 1101.73 822.533 1102.64 809.674C1103.29 800.193 1108.23 792.529 1116.54 788.113C1122.78 784.866 1132.13 784.087 1138.36 786.554Z" fill="#3CB4E5"/>
<path d="M1190.32 867.607C1179.93 879.427 1163.3 888.779 1144.21 893.714C1143.17 894.104 1142.91 894.883 1143.56 895.923C1145.38 899.04 1299.16 1086.34 1299.55 1085.95C1299.94 1085.43 1198.63 862.801 1197.46 861.503C1196.94 860.983 1193.7 863.711 1190.32 867.607Z" fill="#3CB4E5"/>
<path d="M1923.66 771.489C1923.66 776.425 1923.92 778.373 1924.18 775.646C1924.44 773.048 1924.44 768.892 1924.18 766.554C1923.92 764.346 1923.66 766.424 1923.66 771.489Z" fill="#3CB4E5"/>
<path d="M372.543 2019.73V1809.73H475.143C501.543 1809.73 521.343 1814.73 534.543 1824.73C547.943 1834.73 554.643 1847.93 554.643 1864.33C554.643 1875.33 551.943 1884.93 546.543 1893.13C541.143 1901.13 533.743 1907.33 524.343 1911.73C514.943 1916.13 504.143 1918.33 491.943 1918.33L497.643 1906.03C510.843 1906.03 522.543 1908.23 532.743 1912.63C542.943 1916.83 550.843 1923.13 556.443 1931.53C562.243 1939.93 565.143 1950.23 565.143 1962.43C565.143 1980.43 558.043 1994.53 543.843 2004.73C529.643 2014.73 508.743 2019.73 481.143 2019.73H372.543ZM420.843 1983.13H477.543C490.143 1983.13 499.643 1981.13 506.043 1977.13C512.643 1972.93 515.943 1966.33 515.943 1957.33C515.943 1948.53 512.643 1942.03 506.043 1937.83C499.643 1933.43 490.143 1931.23 477.543 1931.23H417.243V1895.83H469.143C480.943 1895.83 489.943 1893.83 496.143 1889.83C502.543 1885.63 505.743 1879.33 505.743 1870.93C505.743 1862.73 502.543 1856.63 496.143 1852.63C489.943 1848.43 480.943 1846.33 469.143 1846.33H420.843V1983.13ZM598.637 2019.73V1797.13H645.437V2019.73H598.637ZM768.971 2022.13C750.571 2022.13 734.371 2018.53 720.371 2011.33C706.571 2004.13 695.871 1994.33 688.271 1981.93C680.671 1969.33 676.871 1955.03 676.871 1939.03C676.871 1922.83 680.571 1908.53 687.971 1896.13C695.571 1883.53 705.871 1873.73 718.871 1866.73C731.871 1859.53 746.571 1855.93 762.971 1855.93C778.771 1855.93 792.971 1859.33 805.571 1866.13C818.371 1872.73 828.471 1882.33 835.871 1894.93C843.271 1907.33 846.971 1922.23 846.971 1939.63C846.971 1941.43 846.871 1943.53 846.671 1945.93C846.471 1948.13 846.271 1950.23 846.071 1952.23H714.971V1924.93H821.471L803.471 1933.03C803.471 1924.63 801.771 1917.33 798.371 1911.13C794.971 1904.93 790.271 1900.13 784.271 1896.73C778.271 1893.13 771.271 1891.33 763.271 1891.33C755.271 1891.33 748.171 1893.13 741.971 1896.73C735.971 1900.13 731.271 1905.03 727.871 1911.43C724.471 1917.63 722.771 1925.03 722.771 1933.63V1940.83C722.771 1949.63 724.671 1957.43 728.471 1964.23C732.471 1970.83 737.971 1975.93 744.971 1979.53C752.171 1982.93 760.571 1984.63 770.171 1984.63C778.771 1984.63 786.271 1983.33 792.671 1980.73C799.271 1978.13 805.271 1974.23 810.671 1969.03L835.571 1996.03C828.171 2004.43 818.871 2010.93 807.671 2015.53C796.471 2019.93 783.571 2022.13 768.971 2022.13ZM958.229 2022.13C939.829 2022.13 923.629 2018.53 909.629 2011.33C895.829 2004.13 885.129 1994.33 877.529 1981.93C869.929 1969.33 866.129 1955.03 866.129 1939.03C866.129 1922.83 869.829 1908.53 877.229 1896.13C884.829 1883.53 895.129 1873.73 908.129 1866.73C921.129 1859.53 935.829 1855.93 952.229 1855.93C968.029 1855.93 982.229 1859.33 994.829 1866.13C1007.63 1872.73 1017.73 1882.33 1025.13 1894.93C1032.53 1907.33 1036.23 1922.23 1036.23 1939.63C1036.23 1941.43 1036.13 1943.53 1035.93 1945.93C1035.73 1948.13 1035.53 1950.23 1035.33 1952.23H904.229V1924.93H1010.73L992.729 1933.03C992.729 1924.63 991.029 1917.33 987.629 1911.13C984.229 1904.93 979.529 1900.13 973.529 1896.73C967.529 1893.13 960.529 1891.33 952.529 1891.33C944.529 1891.33 937.429 1893.13 931.229 1896.73C925.229 1900.13 920.529 1905.03 917.129 1911.43C913.729 1917.63 912.029 1925.03 912.029 1933.63V1940.83C912.029 1949.63 913.929 1957.43 917.729 1964.23C921.729 1970.83 927.229 1975.93 934.229 1979.53C941.429 1982.93 949.829 1984.63 959.429 1984.63C968.029 1984.63 975.529 1983.33 981.929 1980.73C988.529 1978.13 994.529 1974.23 999.929 1969.03L1024.83 1996.03C1017.43 2004.43 1008.13 2010.93 996.929 2015.53C985.729 2019.93 972.829 2022.13 958.229 2022.13ZM1136.69 2022.13C1121.49 2022.13 1107.79 2018.73 1095.59 2011.93C1083.39 2004.93 1073.69 1995.23 1066.49 1982.83C1059.49 1970.43 1055.99 1955.83 1055.99 1939.03C1055.99 1922.03 1059.49 1907.33 1066.49 1894.93C1073.69 1882.53 1083.39 1872.93 1095.59 1866.13C1107.79 1859.33 1121.49 1855.93 1136.69 1855.93C1150.29 1855.93 1162.19 1858.93 1172.39 1864.93C1182.59 1870.93 1190.49 1880.03 1196.09 1892.23C1201.69 1904.43 1204.49 1920.03 1204.49 1939.03C1204.49 1957.83 1201.79 1973.43 1196.39 1985.83C1190.99 1998.03 1183.19 2007.13 1172.99 2013.13C1162.99 2019.13 1150.89 2022.13 1136.69 2022.13ZM1144.79 1983.73C1152.39 1983.73 1159.29 1981.93 1165.49 1978.33C1171.69 1974.73 1176.59 1969.63 1180.19 1963.03C1183.99 1956.23 1185.89 1948.23 1185.89 1939.03C1185.89 1929.63 1183.99 1921.63 1180.19 1915.03C1176.59 1908.43 1171.69 1903.33 1165.49 1899.73C1159.29 1896.13 1152.39 1894.33 1144.79 1894.33C1136.99 1894.33 1129.99 1896.13 1123.79 1899.73C1117.59 1903.33 1112.59 1908.43 1108.79 1915.03C1105.19 1921.63 1103.39 1929.63 1103.39 1939.03C1103.39 1948.23 1105.19 1956.23 1108.79 1963.03C1112.59 1969.63 1117.59 1974.73 1123.79 1978.33C1129.99 1981.93 1136.99 1983.73 1144.79 1983.73ZM1187.09 2019.73V1986.73L1187.99 1938.73L1184.99 1891.03V1797.13H1231.79V2019.73H1187.09ZM1328.8 2019.73L1260.1 1809.73H1310.5L1370.2 1995.73H1345L1407.4 1809.73H1452.4L1512.4 1995.73H1488.1L1549.3 1809.73H1595.8L1527.1 2019.73H1474.9L1421.8 1856.53H1435.6L1381 2019.73H1328.8ZM1706.62 2019.73V1988.23L1703.62 1981.33V1924.93C1703.62 1914.93 1700.52 1907.13 1694.32 1901.53C1688.32 1895.93 1679.02 1893.13 1666.42 1893.13C1657.82 1893.13 1649.32 1894.53 1640.92 1897.33C1632.72 1899.93 1625.72 1903.53 1619.92 1908.13L1603.12 1875.43C1611.92 1869.23 1622.52 1864.43 1634.92 1861.03C1647.32 1857.63 1659.92 1855.93 1672.72 1855.93C1697.32 1855.93 1716.42 1861.73 1730.02 1873.33C1743.62 1884.93 1750.42 1903.03 1750.42 1927.63V2019.73H1706.62ZM1657.42 2022.13C1644.82 2022.13 1634.02 2020.03 1625.02 2015.83C1616.02 2011.43 1609.12 2005.53 1604.32 1998.13C1599.52 1990.73 1597.12 1982.43 1597.12 1973.23C1597.12 1963.63 1599.42 1955.23 1604.02 1948.03C1608.82 1940.83 1616.32 1935.23 1626.52 1931.23C1636.72 1927.03 1650.02 1924.93 1666.42 1924.93H1709.32V1952.23H1671.52C1660.52 1952.23 1652.92 1954.03 1648.72 1957.63C1644.72 1961.23 1642.72 1965.73 1642.72 1971.13C1642.72 1977.13 1645.02 1981.93 1649.62 1985.53C1654.42 1988.93 1660.92 1990.63 1669.12 1990.63C1676.92 1990.63 1683.92 1988.83 1690.12 1985.23C1696.32 1981.43 1700.82 1975.93 1703.62 1968.73L1710.82 1990.33C1707.42 2000.73 1701.22 2008.63 1692.22 2014.03C1683.22 2019.43 1671.62 2022.13 1657.42 2022.13ZM1858.78 2022.13C1839.78 2022.13 1824.98 2017.33 1814.38 2007.73C1803.78 1997.93 1798.48 1983.43 1798.48 1964.23V1822.63H1845.28V1963.63C1845.28 1970.43 1847.08 1975.73 1850.68 1979.53C1854.28 1983.13 1859.18 1984.93 1865.38 1984.93C1872.78 1984.93 1879.08 1982.93 1884.28 1978.93L1896.88 2011.93C1892.08 2015.33 1886.28 2017.93 1879.48 2019.73C1872.88 2021.33 1865.98 2022.13 1858.78 2022.13ZM1773.58 1897.93V1861.93H1885.48V1897.93H1773.58ZM1996.17 2022.13C1978.77 2022.13 1963.27 2018.63 1949.67 2011.63C1936.07 2004.43 1925.37 1994.53 1917.57 1981.93C1909.97 1969.33 1906.17 1955.03 1906.17 1939.03C1906.17 1922.83 1909.97 1908.53 1917.57 1896.13C1925.37 1883.53 1936.07 1873.73 1949.67 1866.73C1963.27 1859.53 1978.77 1855.93 1996.17 1855.93C2013.17 1855.93 2027.97 1859.53 2040.57 1866.73C2053.17 1873.73 2062.47 1883.83 2068.47 1897.03L2032.17 1916.53C2027.97 1908.93 2022.67 1903.33 2016.27 1899.73C2010.07 1896.13 2003.27 1894.33 1995.87 1894.33C1987.87 1894.33 1980.67 1896.13 1974.27 1899.73C1967.87 1903.33 1962.77 1908.43 1958.97 1915.03C1955.37 1921.63 1953.57 1929.63 1953.57 1939.03C1953.57 1948.43 1955.37 1956.43 1958.97 1963.03C1962.77 1969.63 1967.87 1974.73 1974.27 1978.33C1980.67 1981.93 1987.87 1983.73 1995.87 1983.73C2003.27 1983.73 2010.07 1982.03 2016.27 1978.63C2022.67 1975.03 2027.97 1969.33 2032.17 1961.53L2068.47 1981.33C2062.47 1994.33 2053.17 2004.43 2040.57 2011.63C2027.97 2018.63 2013.17 2022.13 1996.17 2022.13ZM2192.64 1855.93C2205.44 1855.93 2216.84 1858.53 2226.84 1863.73C2237.04 1868.73 2245.04 1876.53 2250.84 1887.13C2256.64 1897.53 2259.54 1910.93 2259.54 1927.33V2019.73H2212.74V1934.53C2212.74 1921.53 2209.84 1911.93 2204.04 1905.73C2198.44 1899.53 2190.44 1896.43 2180.04 1896.43C2172.64 1896.43 2165.94 1898.03 2159.94 1901.23C2154.14 1904.23 2149.54 1908.93 2146.14 1915.33C2142.94 1921.73 2141.34 1929.93 2141.34 1939.93V2019.73H2094.54V1797.13H2141.34V1903.03L2130.84 1889.53C2136.64 1878.73 2144.94 1870.43 2155.74 1864.63C2166.54 1858.83 2178.84 1855.93 2192.64 1855.93Z" fill="#3CB4E5"/>
</g>
<defs>
<filter id="filter0_d_534_2" x="304" y="0" width="2020" height="2036.13" filterUnits="userSpaceOnUse" color-interpolation-filters="sRGB">
<feFlood flood-opacity="0" result="BackgroundImageFix"/>
<feColorMatrix in="SourceAlpha" type="matrix" values="0 0 0 0 0 0 0 0 0 0 0 0 0 0 0 0 0 0 127 0" result="hardAlpha"/>
<feOffset dy="4"/>
<feGaussianBlur stdDeviation="5"/>
<feComposite in2="hardAlpha" operator="out"/>
<feColorMatrix type="matrix" values="0 0 0 0 0 0 0 0 0 0 0 0 0 0 0 0 0 0 0.25 0"/>
<feBlend mode="normal" in2="BackgroundImageFix" result="effect1_dropShadow_534_2"/>
<feBlend mode="normal" in="SourceGraphic" in2="effect1_dropShadow_534_2" result="shape"/>
</filter>
</defs>
</svg>
